<?xml version="1.0" encoding="utf-8"?>
<!-- Generator: Adobe Illustrator 22.1.0, SVG Export Plug-In . SVG Version: 6.00 Build 0)  -->
<svg version="1.1" id="Capa_1" xmlns="http://www.w3.org/2000/svg" xmlns:xlink="http://www.w3.org/1999/xlink" x="0px" y="0px"
	 viewBox="0 0 492 528" style="enable-background:new 0 0 492 528;" xml:space="preserve">
<style type="text/css">
	.st0{fill:#FFDA68;}
	.st1{fill:#FFA918;}
	.st2{fill:#2D69AD;}
	.st3{fill:#FF5957;}
	.st4{fill:#FC7718;}
	.st5{fill:#1B3359;}
	.st6{fill:#FC1B5B;}
</style>
<path class="st0" d="M229.1,522.7L15.2,351.4c-3.3-2.7-5.4-6.7-5.6-10.9c-0.2-4.3,1.4-8.4,4.5-11.4l150-146.3
	c5.4-5.3,13.9-5.7,19.8-1l174,139.4c5.9,4.7,7.3,13.1,3.4,19.5L251.1,518.9c-2.2,3.6-6,6.1-10.2,6.9
	C236.8,526.5,232.4,525.4,229.1,522.7z"/>
<path class="st1" d="M361.2,340.6c4-6.4,2.5-14.8-3.4-19.5l-87.4-70L121.7,436.7l107.3,86c3.3,2.7,7.7,3.8,11.9,3.1
	c4.2-0.7,7.9-3.2,10.2-6.9L361.2,340.6z"/>
<path class="st2" d="M320.9,245.1L265.8,201c-6.4-5.2-7.5-14.6-2.3-21L391.9,19.7c17.3-21.6,49-25.1,70.6-7.8s25.1,49,7.8,70.6
	L341.9,242.8C336.8,249.2,327.4,250.3,320.9,245.1z"/>
<path class="st3" d="M339.2,344.4L165.2,205c-3.3-2.7-5.4-6.7-5.6-10.9c-0.2-4.3,1.4-8.4,4.5-11.4l12.7-12.4
	c25.3-24.7,65.3-26.7,92.9-4.5l85,68.1c27.6,22.1,34.4,61.5,15.8,91.7l-9.3,15.1c-2.2,3.6-6,6.1-10.2,6.9
	C346.8,348.2,342.5,347.1,339.2,344.4z"/>
<path class="st4" d="M156.7,464.7c-6.2-5-7.4-13.9-2.7-20.4l55.1-76c4.8-6.7,14.2-8.2,20.9-3.3c6.7,4.9,8.2,14.2,3.3,20.9l-55.1,76
	c-4.8,6.7-14.2,8.2-20.9,3.3C157,465,156.9,464.8,156.7,464.7z"/>
<path class="st1" d="M87.6,409.4c-0.2-0.2-0.4-0.3-0.6-0.5c-6.2-5.5-6.8-14.9-1.3-21.1l62.1-70.4c5.5-6.2,14.9-6.8,21.1-1.3
	c6.2,5.5,6.8,14.9,1.3,21.1l-62.1,70.4C102.8,413.6,93.8,414.3,87.6,409.4z"/>
<path class="st5" d="M462.5,11.9c-0.1-0.1-0.2-0.1-0.3-0.2L293.1,222.8l27.8,22.3c6.4,5.2,15.8,4.1,21-2.3L470.3,82.5
	C487.7,60.9,484.2,29.2,462.5,11.9z"/>
<path class="st6" d="M370.5,325.5c18.6-30.1,11.8-69.5-15.8-91.7l-42.9-34.4l-60,74.9l87.4,70c3.3,2.7,7.7,3.8,11.9,3.1
	c4.2-0.7,7.9-3.2,10.2-6.9L370.5,325.5z"/>
</svg>
