<?xml version="1.0" encoding="utf-8"?>
<!-- Generator: Adobe Illustrator 22.1.0, SVG Export Plug-In . SVG Version: 6.00 Build 0)  -->
<svg version="1.1" id="Layer_1" xmlns="http://www.w3.org/2000/svg" xmlns:xlink="http://www.w3.org/1999/xlink" x="0px" y="0px"
	 viewBox="0 0 841.9 595.3" style="enable-background:new 0 0 841.9 595.3;" xml:space="preserve">
<style type="text/css">
	.st0{fill:#FFBF00;}
	.st1{fill:#BCA251;stroke:#C9A94F;stroke-width:16;stroke-miterlimit:10;}
	.st2{fill:#FFC517;stroke:#D7A100;stroke-width:2;stroke-linecap:round;stroke-miterlimit:10;}
	.st3{fill:#F9D46B;stroke:#A09638;stroke-width:3;stroke-miterlimit:10;}
	.st4{fill:#FFC517;stroke:#D7A100;stroke-width:3;stroke-linecap:round;stroke-miterlimit:10;}
	.st5{fill:#FFC517;stroke:#D7A100;stroke-width:2.5;stroke-miterlimit:10;}
	.st6{fill:#F9D46B;stroke:#EAA560;stroke-width:2.5;stroke-miterlimit:10;}
	.st7{clip-path:url(#SVGID_2_);fill:#BCA251;stroke:#D7A100;stroke-width:6;stroke-miterlimit:10;}
</style>
<path class="st0" d="M0-0.5v596.4c85.6,0,171.2,0,256.9,0c195,0,390,0,585,0c0-198.7,0-397.5,0-596.3L0-0.5L0-0.5z"/>
<path class="st1" d="M359.9-53.5"/>
<g>
	<path class="st2" d="M164.3,269.7c5.5-19.6,14.3-28.8,21.6-33.6c5.7-3.7,11.3-5.3,27.6-14.9c3.8-2.2,8.3-5,13.4-9.7
		c4.8-4.4,8.2-8.8,10.5-11.9"/>
	<path class="st2" d="M184.5,262.3c0.4-1.3,1-3.1,1.9-5.1c0.5-1,2.5-5.4,6.3-9.8c3.9-4.6,7.1-6.3,20.2-14.9c4-2.6,7.1-4.7,9-6"/>
	<path class="st2" d="M238.2,220.5c-2.9,3.7-7,9.4-10.5,17.2c-3.2,7.3-3,10-6,15.7c-5.2,9.9-13.1,15.4-15.7,17.2
		c-9.7,6.6-13.1,3.8-28.4,11.2c-8.2,4-14,8.1-17.2,10.5c-6.5,4.7-14.5,11.5-22.4,20.9"/>
	<path class="st2" d="M211.3,245.1c-0.5,2.7-1.7,6.7-4.4,10.6c-4.9,7.3-12.2,10.5-18.8,13.3c-7.2,3-8.7,2.2-15.7,5.2
		c-6.8,2.9-11.8,6.5-14.9,9"/>
</g>
<path class="st3" d="M289,180.9"/>
<path class="st4" d="M453,177.8c16.1-31.9,29.1-45,38.2-51c7-4.6,12.9-5.7,32.6-17.4c4.5-2.7,10.1-6.1,17.3-12.6
	c6.8-6.1,12.2-12.6,16-17.3"/>
<path class="st2" d="M468.9,172c0.8-1.7,2-4.1,3.6-6.7c0.7-1.3,4-7,8.4-12.5c4.5-5.7,7.2-7.4,19.1-16.8c3.6-2.9,6.5-5.2,8.2-6.6"/>
<path class="st2" d="M521.3,127.3c-3.5,4.3-8.7,11.1-14.3,20.8c-5.3,9.2-6.4,12.8-10.8,19.8c-7.7,12.2-15.2,17.9-17.6,19.7
	c-9,6.8-9.9,2.3-22.7,9c-6.9,3.6-12.4,8-15.4,10.4c-6.2,5-14.2,12.3-23.4,23.3"/>
<path class="st4" d="M493.4,154.6c-1.6,3.5-4.1,8.6-7.5,13.4c-6.4,8.8-12.4,11.5-17.7,13.8c-5.9,2.5-6.4,1.2-12.1,3.7
	c-5.5,2.5-10.3,6.2-13.4,8.9"/>
<path class="st4" d="M279.7,380.6c-17.3,33.4-32,47-42.5,53c-8.1,4.7-15.1,5.6-37.9,17.4c-5.3,2.7-11.7,6.2-19.9,12.8
	c-7.7,6.3-13.9,13-18,17.9"/>
<path class="st4" d="M261.4,386.9c-0.9,1.8-2.2,4.3-3.9,7.1c-0.8,1.4-4.4,7.3-9.3,13c-5.1,5.9-8.3,7.7-21.9,17.3
	c-4.2,2.9-7.5,5.3-9.4,6.7"/>
<path class="st2" d="M202,435.9c3.9-4.7,9.7-12.2,15.9-22.9c5.9-10.1,7-14.1,11.9-21.8c8.6-13.4,17-19.7,19.7-21.7
	c10.2-7.5,11.4-2.4,26.1-9.8c8-4,14.1-8.7,17.6-11.4c7-5.4,16.1-13.5,26.4-25.6"/>
<path class="st4" d="M233.5,405.9c1.7-3.9,4.4-9.4,8.3-14.7c7.1-9.6,14-12.6,20.1-15.1c6.7-2.8,7.5-1.2,14-4
	c6.4-2.7,11.7-6.8,15.2-9.7"/>
<path class="st4" d="M758.6,169.6c-30.4,40.1-49.4,56-61.4,62.9c-9.2,5.3-15.6,6.2-40.9,19.6c-5.8,3.1-13,7.1-23.2,14.8
	c-9.6,7.4-18,15.2-23.9,21.1"/>
<path class="st2" d="M738.6,176.4c-1.4,2.1-3.4,5.1-5.9,8.4c-1.2,1.6-6.6,8.7-13.5,15.3c-7.2,6.8-11.3,8.7-29.5,19.1
	c-5.5,3.2-10,5.8-12.6,7.3"/>
<path class="st4" d="M670.5,215.2c4.6-4.6,11.6-12,19.8-22.6c7.7-10.1,9.8-14.2,16-21.8c10.9-13.3,19.9-19.2,22.8-21
	c10.9-7,10.6-1.6,25.4-8.1c8-3.5,14.6-7.9,18.3-10.5c7.6-5.1,17.6-12.8,29.7-24.6"/>
<path class="st4" d="M704.8,197.6c1.3-3.4,3.5-8.2,6.5-12.8c5.5-8.5,10.6-11.4,15.2-13.8c5-2.7,5.5-1.4,10.3-4.1
	c4.7-2.6,8.8-6.3,11.4-9"/>
<g>
	<path class="st2" d="M291,77.6c8.2-14.3,15.2-19.9,20.2-22.3c3.9-1.8,7.1-2.1,18-6.7c2.5-1.1,5.6-2.4,9.4-5.2
		c3.7-2.6,6.6-5.4,8.6-7.4"/>
	<path class="st2" d="M303.1,75.3c0.6-0.9,1.4-2.2,2.4-3.6c0.5-0.7,2.8-3.7,5.9-6.5c3.3-2.9,5.3-3.7,14.3-8c2.7-1.3,4.9-2.4,6.1-3.1
		"/>
	<path class="st2" d="M341.7,52.4c-2.5,2.3-6.2,6.1-10,11.5c-3.7,5.1-4.3,7.3-7.4,11.2c-5.4,6.8-10.9,9.7-12.6,10.6
		c-6.7,3.4-7.6,0.6-17.3,3.6c-5.2,1.7-9.2,3.8-11.5,5.1c-4.6,2.5-10.5,6.3-17,12.3"/>
	<path class="st2" d="M321.4,66.8c-1,2-2.7,4.9-5.2,7.5c-4.5,4.8-9.1,6-13.1,7c-4.4,1.1-5,0.2-9.3,1.3c-4.2,1.1-7.7,2.9-10,4.3"/>
</g>
<path class="st5" d="M251,595.3c53.5-65.8,77.1-90.7,85.9-96.3c0.8-0.5,6.4-4,13.5-9.4c3.9-2.9,9.4-7.3,15.6-13
	c5.3-4.8,11.4-11,17.9-18.7"/>
<path class="st6" d="M412.2,493.7"/>
<g>
	<defs>
		<rect id="SVGID_1_" y="0" width="841.9" height="595.3"/>
	</defs>
	<clipPath id="SVGID_2_">
		<use xlink:href="#SVGID_1_"  style="overflow:visible;"/>
	</clipPath>
	<path class="st7" d="M306.7,18c0,0,24.9-27.4,16.4-18L-14.5,371.3"/>
	<path class="st7" d="M700.4,31.1c0,0,41.3-45.4,27.1-29.8L169.3,615.4"/>
	<path class="st7" d="M499.7,31.6c0,0,39.6-43.4,26-28.5L-9.6,590.8"/>
	<path class="st7" d="M837.6,123.3c0,0,41.3-45.4,27.1-29.8L306.5,707.6"/>
	<path class="st7" d="M995.8,217.7c0,0,41.3-45.4,27.1-29.8L464.7,802"/>
	<path class="st7" d="M186.4-65.2c0,0,24.9-27.4,16.4-18l-337.5,371.3"/>
</g>
</svg>
